<svg width="90" height="39" viewBox="0 0 90 39" fill="none" xmlns="http://www.w3.org/2000/svg">
<rect x="0.352783" width="89.4943" height="39" rx="12" fill="#3368C8"/>
<rect x="0.602783" y="0.25" width="88.9943" height="38.5" rx="11.75" stroke="black" stroke-opacity="0.13" stroke-width="0.5"/>
<path d="M19.8891 24.1543H14.0375V16.0605H19.8891V24.1543ZM15.5278 22.9375H18.3715V17.25H15.5278V22.9375ZM23.2797 19.6016H25.1801V20.8867H23.2797V27.2168H21.7621V14.8574H23.2797V19.6016ZM35.9809 27.2305H34.4496V14.8574H35.9809V27.2305ZM29.3227 15.7598C29.9425 15.7598 30.4939 15.9398 30.977 16.2998C31.4646 16.6553 31.8474 17.1634 32.1254 17.8242C32.4034 18.4805 32.5447 19.2461 32.5493 20.1211C32.5447 21.0007 32.4034 21.7708 32.1254 22.4316C31.852 23.0924 31.4715 23.6029 30.9838 23.9629C30.4962 24.3184 29.9425 24.4961 29.3227 24.4961C28.6983 24.4961 28.1424 24.3184 27.6547 23.9629C27.1671 23.6029 26.7843 23.0924 26.5063 22.4316C26.2328 21.7708 26.0961 21.0007 26.0961 20.1211C26.0961 19.2461 26.2328 18.4805 26.5063 17.8242C26.7843 17.1634 27.1671 16.6553 27.6547 16.2998C28.1424 15.9398 28.6983 15.7598 29.3227 15.7598ZM29.3227 17.127C28.9718 17.127 28.6619 17.2454 28.393 17.4824C28.1287 17.7194 27.9236 18.0635 27.7778 18.5146C27.6319 18.9658 27.559 19.5013 27.559 20.1211C27.559 20.7454 27.6319 21.2832 27.7778 21.7344C27.9236 22.1855 28.1287 22.5319 28.393 22.7734C28.6619 23.0104 28.9718 23.1289 29.3227 23.1289C29.669 23.1289 29.9744 23.0104 30.2387 22.7734C30.503 22.5319 30.7081 22.1855 30.8539 21.7344C30.9998 21.2832 31.0727 20.7454 31.0727 20.1211C31.0727 19.5013 30.9998 18.9681 30.8539 18.5215C30.7081 18.0703 30.503 17.7262 30.2387 17.4893C29.9744 17.2477 29.669 17.127 29.3227 17.127ZM51.8539 27.2168H50.4047V14.8574H51.8539V27.2168ZM49.393 26.6016H47.9438V20.7773H46.5766V19.4238H47.9438V15.1172H49.393V26.6016ZM46.8911 17.5508H46.0161V22.8828C46.408 22.8464 46.7771 22.8053 47.1235 22.7598L47.2192 23.8672C45.7927 24.1589 43.7739 24.3047 41.1625 24.3047L40.9848 23.0469L42.1059 23.04V17.5508H41.2309V16.3203H46.8911V17.5508ZM44.6215 22.9717V17.5508H43.4731V23.0127L44.6215 22.9717ZM63.5024 27.2305H61.9711V14.8574H63.5024V27.2305ZM56.8442 15.7598C57.464 15.7598 58.0154 15.9398 58.4985 16.2998C58.9861 16.6553 59.3689 17.1634 59.6469 17.8242C59.9249 18.4805 60.0662 19.2461 60.0707 20.1211C60.0662 21.0007 59.9249 21.7708 59.6469 22.4316C59.3735 23.0924 58.9929 23.6029 58.5053 23.9629C58.0177 24.3184 57.464 24.4961 56.8442 24.4961C56.2198 24.4961 55.6638 24.3184 55.1762 23.9629C54.6886 23.6029 54.3058 23.0924 54.0278 22.4316C53.7543 21.7708 53.6176 21.0007 53.6176 20.1211C53.6176 19.2461 53.7543 18.4805 54.0278 17.8242C54.3058 17.1634 54.6886 16.6553 55.1762 16.2998C55.6638 15.9398 56.2198 15.7598 56.8442 15.7598ZM56.8442 17.127C56.4933 17.127 56.1834 17.2454 55.9145 17.4824C55.6502 17.7194 55.4451 18.0635 55.2993 18.5146C55.1534 18.9658 55.0805 19.5013 55.0805 20.1211C55.0805 20.7454 55.1534 21.2832 55.2993 21.7344C55.4451 22.1855 55.6502 22.5319 55.9145 22.7734C56.1834 23.0104 56.4933 23.1289 56.8442 23.1289C57.1905 23.1289 57.4959 23.0104 57.7602 22.7734C58.0245 22.5319 58.2296 22.1855 58.3754 21.7344C58.5213 21.2832 58.5942 20.7454 58.5942 20.1211C58.5942 19.5013 58.5213 18.9681 58.3754 18.5215C58.2296 18.0703 58.0245 17.7262 57.7602 17.4893C57.4959 17.2477 57.1905 17.127 56.8442 17.127ZM69.9828 18.3711C69.9828 19.0501 70.1105 19.7223 70.3657 20.3877C70.6254 21.0485 70.9946 21.6432 71.4731 22.1719C71.9562 22.696 72.5213 23.0924 73.1684 23.3613L72.3344 24.5645C71.6189 24.2591 70.9968 23.8011 70.4682 23.1904C69.9396 22.5798 69.5294 21.8711 69.2377 21.0645C68.9461 21.9303 68.5336 22.6982 68.0004 23.3682C67.4718 24.0335 66.852 24.5326 66.1411 24.8652L65.2661 23.6758C65.8995 23.3841 66.4555 22.9557 66.934 22.3906C67.4171 21.8255 67.7885 21.1921 68.0483 20.4902C68.308 19.7839 68.4379 19.0775 68.4379 18.3711V17.332H65.7172V16.0742H72.6899V17.332H69.9828V18.3711ZM75.602 27.2168H74.0707V14.8574H75.602V27.2168Z" fill="white"/>
</svg>
